<mxfile host="Electron" modified="2023-12-12T09:15:16.392Z" agent="Mozilla/5.0 (Windows NT 10.0; Win64; x64) AppleWebKit/537.36 (KHTML, like Gecko) draw.io/21.6.1 Chrome/112.0.5615.204 Electron/24.6.1 Safari/537.36" etag="D3bDZVJmoF3l3aolmOQE" version="21.6.1" type="device">
  <diagram name="第 1 页" id="e5oKAU2iLACSU31qqFsU">
    <mxGraphModel dx="1176" dy="679" grid="1" gridSize="10" guides="1" tooltips="1" connect="1" arrows="1" fold="1" page="1" pageScale="1" pageWidth="827" pageHeight="1169" math="1" shadow="0">
      <root>
        <mxCell id="0" />
        <mxCell id="1" parent="0" />
        <mxCell id="hwcrZ0lhmxBH8E8MlAbe-4" value="" style="whiteSpace=wrap;html=1;aspect=fixed;fillColor=none;" vertex="1" parent="1">
          <mxGeometry x="240" y="400" width="320" height="320" as="geometry" />
        </mxCell>
        <mxCell id="hwcrZ0lhmxBH8E8MlAbe-3" value="" style="endArrow=none;html=1;rounded=0;exitX=0;exitY=0.143;exitDx=0;exitDy=0;exitPerimeter=0;entryX=1.002;entryY=0.125;entryDx=0;entryDy=0;entryPerimeter=0;" edge="1" parent="1" target="hwcrZ0lhmxBH8E8MlAbe-4">
          <mxGeometry width="50" height="50" relative="1" as="geometry">
            <mxPoint x="240" y="440.03999999999996" as="sourcePoint" />
            <mxPoint x="519.44" y="440.31999999999994" as="targetPoint" />
          </mxGeometry>
        </mxCell>
        <mxCell id="hwcrZ0lhmxBH8E8MlAbe-5" value="" style="endArrow=none;html=1;rounded=0;exitX=0;exitY=0.143;exitDx=0;exitDy=0;exitPerimeter=0;entryX=1.002;entryY=0.125;entryDx=0;entryDy=0;entryPerimeter=0;" edge="1" parent="1">
          <mxGeometry width="50" height="50" relative="1" as="geometry">
            <mxPoint x="239" y="480.03999999999996" as="sourcePoint" />
            <mxPoint x="560" y="480" as="targetPoint" />
          </mxGeometry>
        </mxCell>
        <mxCell id="hwcrZ0lhmxBH8E8MlAbe-6" value="" style="endArrow=none;html=1;rounded=0;exitX=0;exitY=0.143;exitDx=0;exitDy=0;exitPerimeter=0;" edge="1" parent="1" target="hwcrZ0lhmxBH8E8MlAbe-4">
          <mxGeometry width="50" height="50" relative="1" as="geometry">
            <mxPoint x="240" y="520.04" as="sourcePoint" />
            <mxPoint x="410" y="520" as="targetPoint" />
            <Array as="points">
              <mxPoint x="560" y="520" />
            </Array>
          </mxGeometry>
        </mxCell>
        <mxCell id="hwcrZ0lhmxBH8E8MlAbe-7" value="" style="endArrow=none;html=1;rounded=0;exitX=0;exitY=0.143;exitDx=0;exitDy=0;exitPerimeter=0;" edge="1" parent="1">
          <mxGeometry width="50" height="50" relative="1" as="geometry">
            <mxPoint x="240" y="559.75" as="sourcePoint" />
            <mxPoint x="561" y="560" as="targetPoint" />
          </mxGeometry>
        </mxCell>
        <mxCell id="hwcrZ0lhmxBH8E8MlAbe-8" value="" style="endArrow=none;html=1;rounded=0;exitX=0.004;exitY=0.625;exitDx=0;exitDy=0;exitPerimeter=0;" edge="1" parent="1" source="hwcrZ0lhmxBH8E8MlAbe-4">
          <mxGeometry width="50" height="50" relative="1" as="geometry">
            <mxPoint x="250" y="600" as="sourcePoint" />
            <mxPoint x="560" y="600" as="targetPoint" />
          </mxGeometry>
        </mxCell>
        <mxCell id="hwcrZ0lhmxBH8E8MlAbe-9" value="" style="endArrow=none;html=1;rounded=0;exitX=0;exitY=0.143;exitDx=0;exitDy=0;exitPerimeter=0;entryX=1;entryY=0.75;entryDx=0;entryDy=0;" edge="1" parent="1" target="hwcrZ0lhmxBH8E8MlAbe-4">
          <mxGeometry width="50" height="50" relative="1" as="geometry">
            <mxPoint x="240" y="640.04" as="sourcePoint" />
            <mxPoint x="550" y="640" as="targetPoint" />
          </mxGeometry>
        </mxCell>
        <mxCell id="hwcrZ0lhmxBH8E8MlAbe-10" value="" style="endArrow=none;html=1;rounded=0;exitX=0;exitY=0.143;exitDx=0;exitDy=0;exitPerimeter=0;" edge="1" parent="1">
          <mxGeometry width="50" height="50" relative="1" as="geometry">
            <mxPoint x="240" y="680.04" as="sourcePoint" />
            <mxPoint x="560" y="680" as="targetPoint" />
          </mxGeometry>
        </mxCell>
        <mxCell id="hwcrZ0lhmxBH8E8MlAbe-12" value="" style="endArrow=none;html=1;rounded=0;entryX=0.127;entryY=-0.002;entryDx=0;entryDy=0;entryPerimeter=0;exitX=0.125;exitY=1;exitDx=0;exitDy=0;exitPerimeter=0;" edge="1" parent="1" source="hwcrZ0lhmxBH8E8MlAbe-4" target="hwcrZ0lhmxBH8E8MlAbe-4">
          <mxGeometry width="50" height="50" relative="1" as="geometry">
            <mxPoint x="270" y="470" as="sourcePoint" />
            <mxPoint x="320" y="420" as="targetPoint" />
          </mxGeometry>
        </mxCell>
        <mxCell id="hwcrZ0lhmxBH8E8MlAbe-13" value="" style="endArrow=none;html=1;rounded=0;entryX=0.127;entryY=-0.002;entryDx=0;entryDy=0;entryPerimeter=0;exitX=0.125;exitY=1;exitDx=0;exitDy=0;exitPerimeter=0;" edge="1" parent="1">
          <mxGeometry width="50" height="50" relative="1" as="geometry">
            <mxPoint x="320" y="721" as="sourcePoint" />
            <mxPoint x="321" y="400" as="targetPoint" />
          </mxGeometry>
        </mxCell>
        <mxCell id="hwcrZ0lhmxBH8E8MlAbe-14" value="" style="endArrow=none;html=1;rounded=0;entryX=0.127;entryY=-0.002;entryDx=0;entryDy=0;entryPerimeter=0;exitX=0.125;exitY=1;exitDx=0;exitDy=0;exitPerimeter=0;" edge="1" parent="1">
          <mxGeometry width="50" height="50" relative="1" as="geometry">
            <mxPoint x="360" y="721" as="sourcePoint" />
            <mxPoint x="361" y="400" as="targetPoint" />
          </mxGeometry>
        </mxCell>
        <mxCell id="hwcrZ0lhmxBH8E8MlAbe-15" value="" style="endArrow=none;html=1;rounded=0;entryX=0.127;entryY=-0.002;entryDx=0;entryDy=0;entryPerimeter=0;exitX=0.125;exitY=1;exitDx=0;exitDy=0;exitPerimeter=0;" edge="1" parent="1">
          <mxGeometry width="50" height="50" relative="1" as="geometry">
            <mxPoint x="399.5" y="720.5" as="sourcePoint" />
            <mxPoint x="400.5" y="399.5" as="targetPoint" />
          </mxGeometry>
        </mxCell>
        <mxCell id="hwcrZ0lhmxBH8E8MlAbe-16" value="" style="endArrow=none;html=1;rounded=0;entryX=0.127;entryY=-0.002;entryDx=0;entryDy=0;entryPerimeter=0;exitX=0.125;exitY=1;exitDx=0;exitDy=0;exitPerimeter=0;" edge="1" parent="1">
          <mxGeometry width="50" height="50" relative="1" as="geometry">
            <mxPoint x="440" y="720" as="sourcePoint" />
            <mxPoint x="441" y="399" as="targetPoint" />
          </mxGeometry>
        </mxCell>
        <mxCell id="hwcrZ0lhmxBH8E8MlAbe-17" value="" style="endArrow=none;html=1;rounded=0;entryX=0.127;entryY=-0.002;entryDx=0;entryDy=0;entryPerimeter=0;exitX=0.125;exitY=1;exitDx=0;exitDy=0;exitPerimeter=0;" edge="1" parent="1">
          <mxGeometry width="50" height="50" relative="1" as="geometry">
            <mxPoint x="480" y="720.5" as="sourcePoint" />
            <mxPoint x="481" y="399.5" as="targetPoint" />
          </mxGeometry>
        </mxCell>
        <mxCell id="hwcrZ0lhmxBH8E8MlAbe-18" value="" style="endArrow=none;html=1;rounded=0;entryX=0.127;entryY=-0.002;entryDx=0;entryDy=0;entryPerimeter=0;exitX=0.125;exitY=1;exitDx=0;exitDy=0;exitPerimeter=0;" edge="1" parent="1">
          <mxGeometry width="50" height="50" relative="1" as="geometry">
            <mxPoint x="520" y="720.5" as="sourcePoint" />
            <mxPoint x="521" y="399.5" as="targetPoint" />
          </mxGeometry>
        </mxCell>
        <mxCell id="hwcrZ0lhmxBH8E8MlAbe-19" value="gridDim.x" style="text;strokeColor=none;align=center;fillColor=none;html=1;verticalAlign=middle;whiteSpace=wrap;rounded=0;" vertex="1" parent="1">
          <mxGeometry x="350" y="750" width="100" height="30" as="geometry" />
        </mxCell>
        <mxCell id="hwcrZ0lhmxBH8E8MlAbe-21" value="" style="shape=curlyBracket;whiteSpace=wrap;html=1;rounded=1;flipH=1;labelPosition=right;verticalLabelPosition=middle;align=left;verticalAlign=middle;rotation=90;" vertex="1" parent="1">
          <mxGeometry x="390" y="580" width="20" height="320" as="geometry" />
        </mxCell>
        <mxCell id="hwcrZ0lhmxBH8E8MlAbe-23" value="gridDim.y" style="text;strokeColor=none;align=center;fillColor=none;html=1;verticalAlign=middle;whiteSpace=wrap;rounded=0;rotation=90;" vertex="1" parent="1">
          <mxGeometry x="550" y="545" width="100" height="30" as="geometry" />
        </mxCell>
        <mxCell id="hwcrZ0lhmxBH8E8MlAbe-24" value="" style="shape=curlyBracket;whiteSpace=wrap;html=1;rounded=1;flipH=1;labelPosition=right;verticalLabelPosition=middle;align=left;verticalAlign=middle;rotation=0;" vertex="1" parent="1">
          <mxGeometry x="570" y="400" width="20" height="320" as="geometry" />
        </mxCell>
        <mxCell id="hwcrZ0lhmxBH8E8MlAbe-25" value="" style="shape=curlyBracket;whiteSpace=wrap;html=1;rounded=1;flipH=1;labelPosition=right;verticalLabelPosition=middle;align=left;verticalAlign=middle;rotation=90;" vertex="1" parent="1">
          <mxGeometry x="530" y="710" width="20" height="40" as="geometry" />
        </mxCell>
        <mxCell id="hwcrZ0lhmxBH8E8MlAbe-26" value="" style="shape=curlyBracket;whiteSpace=wrap;html=1;rounded=1;flipH=1;labelPosition=right;verticalLabelPosition=middle;align=left;verticalAlign=middle;rotation=0;" vertex="1" parent="1">
          <mxGeometry x="560" y="680" width="20" height="40" as="geometry" />
        </mxCell>
        <mxCell id="hwcrZ0lhmxBH8E8MlAbe-27" value="blockDim.x" style="text;strokeColor=none;align=center;fillColor=none;html=1;verticalAlign=middle;whiteSpace=wrap;rounded=0;" vertex="1" parent="1">
          <mxGeometry x="490" y="740" width="100" height="30" as="geometry" />
        </mxCell>
        <mxCell id="hwcrZ0lhmxBH8E8MlAbe-28" value="blockDim.y" style="text;strokeColor=none;align=center;fillColor=none;html=1;verticalAlign=middle;whiteSpace=wrap;rounded=0;rotation=90;" vertex="1" parent="1">
          <mxGeometry x="540" y="685" width="100" height="30" as="geometry" />
        </mxCell>
        <mxCell id="hwcrZ0lhmxBH8E8MlAbe-29" value="" style="endArrow=classic;html=1;rounded=0;" edge="1" parent="1">
          <mxGeometry width="50" height="50" relative="1" as="geometry">
            <mxPoint x="200" y="545" as="sourcePoint" />
            <mxPoint x="305" y="545" as="targetPoint" />
          </mxGeometry>
        </mxCell>
        <mxCell id="hwcrZ0lhmxBH8E8MlAbe-30" value="" style="endArrow=classic;html=1;rounded=0;" edge="1" parent="1">
          <mxGeometry width="50" height="50" relative="1" as="geometry">
            <mxPoint x="305" y="380" as="sourcePoint" />
            <mxPoint x="305" y="545" as="targetPoint" />
          </mxGeometry>
        </mxCell>
        <mxCell id="hwcrZ0lhmxBH8E8MlAbe-32" value="threadIdx.y" style="text;strokeColor=none;align=center;fillColor=none;html=1;verticalAlign=middle;whiteSpace=wrap;rounded=0;" vertex="1" parent="1">
          <mxGeometry x="120" y="529" width="100" height="30" as="geometry" />
        </mxCell>
        <mxCell id="hwcrZ0lhmxBH8E8MlAbe-33" value="threadIdx.x" style="text;strokeColor=none;align=center;fillColor=none;html=1;verticalAlign=middle;whiteSpace=wrap;rounded=0;" vertex="1" parent="1">
          <mxGeometry x="258" y="350" width="100" height="30" as="geometry" />
        </mxCell>
        <mxCell id="hwcrZ0lhmxBH8E8MlAbe-34" value="" style="endArrow=classic;html=1;rounded=0;" edge="1" parent="1">
          <mxGeometry width="50" height="50" relative="1" as="geometry">
            <mxPoint x="200" y="520" as="sourcePoint" />
            <mxPoint x="275" y="520" as="targetPoint" />
          </mxGeometry>
        </mxCell>
        <mxCell id="hwcrZ0lhmxBH8E8MlAbe-35" value="blockIdx.y" style="text;strokeColor=none;align=center;fillColor=none;html=1;verticalAlign=middle;whiteSpace=wrap;rounded=0;" vertex="1" parent="1">
          <mxGeometry x="120" y="503" width="100" height="30" as="geometry" />
        </mxCell>
        <mxCell id="hwcrZ0lhmxBH8E8MlAbe-36" value="" style="endArrow=classic;html=1;rounded=0;" edge="1" parent="1">
          <mxGeometry width="50" height="50" relative="1" as="geometry">
            <mxPoint x="280" y="380" as="sourcePoint" />
            <mxPoint x="280" y="520" as="targetPoint" />
          </mxGeometry>
        </mxCell>
        <mxCell id="hwcrZ0lhmxBH8E8MlAbe-37" value="blockIdx.x" style="text;strokeColor=none;align=center;fillColor=none;html=1;verticalAlign=middle;whiteSpace=wrap;rounded=0;" vertex="1" parent="1">
          <mxGeometry x="220" y="370" width="100" height="30" as="geometry" />
        </mxCell>
      </root>
    </mxGraphModel>
  </diagram>
</mxfile>
